REM DIRINDEX 1\6,1\2\7,1\2\8,1\2\9,1\3\10,1\3\11,1\4\12,1\4\13,1\4\14,1\5\15,1\5\16,1\5\17
REM DIRNAME folder01,folder02,folder03,folder04,folder05,folder06,folder07,folder08,folder09,folder10,folder11,folder12,folder13,folder14,folder15,folder16,folder17
TITLE ""
FILE "3Q_t_0787-0802.mp3" MP3
  TRACK 01 AUDIO
    TITLE "10:cjc041_3184"
    INDEX 01 00:00:00
  TRACK 02 AUDIO
    TITLE "0:"
    INDEX 01 00:01:01
  TRACK 03 AUDIO
    TITLE "11:cjc041_3185"
    INDEX 01 00:01:62
  TRACK 04 AUDIO
    TITLE "0:"
    INDEX 01 00:02:67
  TRACK 05 AUDIO
    TITLE "10:cjc041_3186"
    INDEX 01 00:03:49
  TRACK 06 AUDIO
    TITLE "0:"
    INDEX 01 00:04:68
  TRACK 07 AUDIO
    TITLE "11:cjc041_3187"
    INDEX 01 00:05:50
  TRACK 08 AUDIO
    TITLE "0:"
    INDEX 01 00:06:65
  TRACK 09 AUDIO
    TITLE "10:cjc041_3188"
    INDEX 01 00:07:43
  TRACK 10 AUDIO
    TITLE "0:"
    INDEX 01 00:08:48
  TRACK 11 AUDIO
    TITLE "11:cjc041_3189"
    INDEX 01 00:09:28
  TRACK 12 AUDIO
    TITLE "0:"
    INDEX 01 00:10:27
  TRACK 13 AUDIO
    TITLE "10:cjc041_3190"
    INDEX 01 00:11:05
  TRACK 14 AUDIO
    TITLE "0:"
    INDEX 01 00:12:38
  TRACK 15 AUDIO
    TITLE "11:cjc041_3191"
    INDEX 01 00:13:12
  TRACK 16 AUDIO
    TITLE "0:"
    INDEX 01 00:15:28
  TRACK 17 AUDIO
    TITLE "10:cjc041_3192"
    INDEX 01 00:16:04
  TRACK 18 AUDIO
    TITLE "0:"
    INDEX 01 00:17:08
  TRACK 19 AUDIO
    TITLE "11:cjc041_3193"
    INDEX 01 00:17:63
  TRACK 20 AUDIO
    TITLE "0:"
    INDEX 01 00:18:68
  TRACK 21 AUDIO
    TITLE "10:cjc041_3194"
    INDEX 01 00:19:48
  TRACK 22 AUDIO
    TITLE "0:"
    INDEX 01 00:21:00
  TRACK 23 AUDIO
    TITLE "11:cjc041_3195"
    INDEX 01 00:21:53
  TRACK 24 AUDIO
    TITLE "0:"
    INDEX 01 00:22:58
  TRACK 25 AUDIO
    TITLE "10:cjc041_3196"
    INDEX 01 00:23:36
  TRACK 26 AUDIO
    TITLE "0:"
    INDEX 01 00:24:57
  TRACK 27 AUDIO
    TITLE "11:cjc041_3197"
    INDEX 01 00:25:39
  TRACK 28 AUDIO
    TITLE "0:"
    INDEX 01 00:27:63
  TRACK 29 AUDIO
    TITLE "10:cjc041_3198"
    INDEX 01 00:28:39
  TRACK 30 AUDIO
    TITLE "0:"
    INDEX 01 00:29:58
  TRACK 31 AUDIO
    TITLE "11:cjc041_3199"
    INDEX 01 00:30:36
  TRACK 32 AUDIO
    TITLE "0:"
    INDEX 01 00:31:59
  TRACK 33 AUDIO
    TITLE "10:cjc041_3200"
    INDEX 01 00:32:35
  TRACK 34 AUDIO
    TITLE "0:"
    INDEX 01 00:33:46
  TRACK 35 AUDIO
    TITLE "11:cjc041_3201"
    INDEX 01 00:34:28
  TRACK 36 AUDIO
    TITLE "0:"
    INDEX 01 00:35:41
  TRACK 37 AUDIO
    TITLE "10:cjc041_3202"
    INDEX 01 00:36:23
  TRACK 38 AUDIO
    TITLE "0:"
    INDEX 01 00:37:48
  TRACK 39 AUDIO
    TITLE "11:cjc041_3203"
    INDEX 01 00:38:26
  TRACK 40 AUDIO
    TITLE "0:"
    INDEX 01 00:39:43
  TRACK 41 AUDIO
    TITLE "10:cjc041_3204"
    INDEX 01 00:40:21
  TRACK 42 AUDIO
    TITLE "0:"
    INDEX 01 00:41:38
  TRACK 43 AUDIO
    TITLE "11:cjc041_3205"
    INDEX 01 00:42:23
  TRACK 44 AUDIO
    TITLE "0:"
    INDEX 01 00:43:27
  TRACK 45 AUDIO
    TITLE "10:cjc041_3206"
    INDEX 01 00:44:11
  TRACK 46 AUDIO
    TITLE "0:"
    INDEX 01 00:45:51
  TRACK 47 AUDIO
    TITLE "11:cjc041_3207"
    INDEX 01 00:46:25
  TRACK 48 AUDIO
    TITLE "0:"
    INDEX 01 00:48:67
  TRACK 49 AUDIO
    TITLE "10:cjc041_3208"
    INDEX 01 00:49:43
  TRACK 50 AUDIO
    TITLE "0:"
    INDEX 01 00:50:60
  TRACK 51 AUDIO
    TITLE "11:cjc041_3209"
    INDEX 01 00:51:42
  TRACK 52 AUDIO
    TITLE "0:"
    INDEX 01 00:52:45
  TRACK 53 AUDIO
    TITLE "10:cjc041_3210"
    INDEX 01 00:53:19
  TRACK 54 AUDIO
    TITLE "0:"
    INDEX 01 00:54:52
  TRACK 55 AUDIO
    TITLE "11:cjc041_3211"
    INDEX 01 00:55:28
  TRACK 56 AUDIO
    TITLE "0:"
    INDEX 01 00:56:31
  TRACK 57 AUDIO
    TITLE "10:cjc041_3212"
    INDEX 01 00:57:05
  TRACK 58 AUDIO
    TITLE "0:"
    INDEX 01 00:58:34
  TRACK 59 AUDIO
    TITLE "11:cjc041_3213"
    INDEX 01 00:59:12
  TRACK 60 AUDIO
    TITLE "0:"
    INDEX 01 01:00:33
  TRACK 61 AUDIO
    TITLE "10:cjc041_3214"
    INDEX 01 01:01:13
  TRACK 62 AUDIO
    TITLE "0:"
    INDEX 01 01:02:20
  TRACK 63 AUDIO
    TITLE "11:cjc041_3215"
    INDEX 01 01:02:73
  TRACK 64 AUDIO
    TITLE "0:"
    INDEX 01 01:04:07
